<!DOCTYPE svg PUBLIC "-//W3C//DTD SVG 1.1//EN" "http://www.w3.org/Graphics/SVG/1.1/DTD/svg11.dtd">
<!-- Uploaded to: SVG Repo, www.svgrepo.com, Transformed by: SVG Repo Mixer Tools -->
<svg width="800px" height="800px" viewBox="0 0 16 16" version="1.1" xmlns="http://www.w3.org/2000/svg" xmlns:xlink="http://www.w3.org/1999/xlink" fill="#000000">
<g id="SVGRepo_bgCarrier" stroke-width="0"/>
<g id="SVGRepo_tracerCarrier" stroke-linecap="round" stroke-linejoin="round"/>
<g id="SVGRepo_iconCarrier"> <path fill="#d90005" d="M12 6v-4l-4-2-4 2v4l-4 2v5l4 2 4-2 4 2 4-2v-5zM8.090 1.12l2.91 1.44-2.6 1.3-2.91-1.44zM5 2.78l3 1.5v3.6l-3-1.5v-3.6zM4 13.88l-3-1.5v-3.6l3 1.5v3.6zM4.28 9.88l-2.88-1.46 2.6-1.3 2.88 1.44zM12 13.88l-3-1.5v-3.6l3 1.5v3.6zM12.28 9.88l-2.88-1.46 2.6-1.3 2.88 1.44z"/> </g>
</svg>